Coordinates
version=1
nRows=4
nColumns=60
inDegrees=yes

Units are S.I. units (second, meters, Newtons, ...)
If the header above contains a line with 'inDegrees', this indicates whether rotational values are in degrees (yes) or radians (no).

endheader
time	pelvis_tilt	pelvis_list	pelvis_rotation	pelvis_tx	pelvis_ty	pelvis_tz	hip_flexion_r	hip_adduction_r	hip_rotation_r	knee_angle_r_beta	knee_angle_r	ankle_angle_r	subtalar_angle_r	mtp_angle_r	hip_flexion_l	hip_adduction_l	hip_rotation_l	knee_angle_l_beta	knee_angle_l	ankle_angle_l	subtalar_angle_l	mtp_angle_l	L5_S1_Flex_Ext	L5_S1_Lat_Bending	L5_S1_axial_rotation	L4_L5_Flex_Ext	L4_L5_Lat_Bending	L4_L5_axial_rotation	L3_L4_Flex_Ext	L3_L4_Lat_Bending	L3_L4_axial_rotation	L2_L3_Flex_Ext	L2_L3_Lat_Bending	L2_L3_axial_rotation	L1_L2_Flex_Ext	L1_L2_Lat_Bending	L1_L2_axial_rotation	L1_T12_Flex_Ext	L1_T12_Lat_Bending	L1_T12_axial_rotation	Abs_r3	Abs_r2	Abs_r1	Abs_t1	Abs_t2	arm_flex_r	arm_add_r	arm_rot_r	elbow_flex_r	pro_sup_r	wrist_flex_r	wrist_dev_r	arm_flex_l	arm_add_l	arm_rot_l	elbow_flex_l	pro_sup_l	wrist_flex_l	wrist_dev_l
     50.40000000	      0.82067069	    -12.74209871	     95.07931470	      0.40596547	      0.84955695	      0.40439926	     47.39226425	     -7.04784978	     -0.50095710	      0.75422530	    -43.21392633	     10.72933136	      0.00000000	      0.00000000	     48.47137384	     -5.03779004	     -0.07273421	      0.70948077	    -40.65025357	      8.63423739	      0.00000000	      0.00000000	    -10.91877386	      0.31612233	     -0.05216773	    -20.27725494	      0.42044270	     -0.05542821	    -17.93845357	      0.76861983	     -0.05542821	    -12.47906664	      0.76861983	     -0.04564676	    -10.13917341	      0.64463665	     -0.04238628	     -6.23898738	      0.48967349	     -0.03912580	    -77.99170980	      3.57603901	     -0.29014127	      0.00000000	      0.00000000	     84.21706541	    -16.01445646	     16.61767361	     32.41942571	     75.72460713	     22.16126332	     -0.66891992	     91.02806168	    -14.72285023	     39.64530508	     25.82920420	     61.23484428	     24.16942314	     -5.70097428
     50.41000000	      0.85798695	    -12.65263268	     95.07726523	      0.40604977	      0.84939107	      0.40479932	     47.38348238	     -7.00226614	     -0.50315279	      0.75615846	    -43.32468825	     10.69867670	      0.00000000	      0.00000000	     48.48756910	     -5.08992496	     -0.05643758	      0.71157229	    -40.77008899	      8.60443704	      0.00000000	      0.00000000	    -10.92605085	      0.31776121	     -0.05033721	    -20.29076904	      0.42262241	     -0.05348329	    -17.95040895	      0.77260461	     -0.05348329	    -12.48738352	      0.77260461	     -0.04404506	    -10.14593082	      0.64797866	     -0.04089899	     -6.24314546	      0.49221211	     -0.03775291	    -78.04368864	      3.59457836	     -0.27996048	      0.00000000	      0.00000000	     84.29678935	    -16.02050739	     16.73798904	     32.33417139	     75.77970470	     22.13361280	     -0.62702057	     90.96404646	    -14.71046386	     39.57175543	     25.81973778	     61.26434121	     24.11618761	     -5.68743866
     50.42000000	      0.85894647	    -12.60547603	     95.08878236	      0.40612524	      0.84928069	      0.40517381	     47.37523255	     -7.00939164	     -0.51864383	      0.75638246	    -43.33752245	     10.69330783	      0.00000000	      0.00000000	     48.49141282	     -5.09478146	     -0.05616903	      0.71196121	    -40.79237232	      8.59836839	      0.00000000	      0.00000000	    -10.92453134	      0.31598338	     -0.04813999	    -20.28794715	      0.42025789	     -0.05114874	    -17.94791254	      0.76828198	     -0.05114874	    -12.48564687	      0.76828198	     -0.04212249	    -10.14451980	      0.64435330	     -0.03911374	     -6.24227721	      0.48945825	     -0.03610499	    -78.03283491	      3.57446714	     -0.26774017	      0.00000000	      0.00000000	     84.15664246	    -16.06111010	     16.68305998	     32.56417608	     75.45687901	     22.12109223	     -0.60358455	     90.84442023	    -14.63307211	     39.33249336	     25.92067454	     61.05589233	     24.10563666	     -5.68469308
     50.43000000	      0.92849435	    -12.51259375	     95.10251729	      0.40616108	      0.84928776	      0.40546089	     47.31918237	     -6.95841729	     -0.62733788	      0.75673898	    -43.35794960	     10.66350647	      0.00000000	      0.00000000	     48.47479110	     -5.16743887	     -0.04356980	      0.71326003	    -40.86678930	      8.56546600	      0.00000000	      0.00000000	    -10.92493580	      0.32240818	     -0.03792785	    -20.28869827	      0.42880288	     -0.04029834	    -17.94857703	      0.78390325	     -0.04029834	    -12.48610913	      0.78390325	     -0.03318687	    -10.14489538	      0.65745476	     -0.03081638	     -6.24250832	      0.49941027	     -0.02844589	    -78.03572392	      3.64714581	     -0.21094334	      0.00000000	      0.00000000	     84.24577344	    -16.08717015	     17.14778208	     32.54922032	     75.93012605	     20.64948155	      0.23021936	     90.34057585	    -14.43581339	     37.43460409	     26.42542861	     62.49421560	     22.13888396	     -4.57305838
